<svg width="888" height="520" viewBox="0 0 888 520" fill="none" xmlns="http://www.w3.org/2000/svg">
<g filter="url(#filter0_b_1016_16)">
<path d="M26.624 238.312V196.584C26.624 186.344 24.7467 179.005 20.992 174.568C17.2373 170.131 11.6053 167.912 4.096 167.912V152.552L29.952 140.264H95.232V167.912H52.224L51.968 168.936C56.4053 171.667 59.648 175.592 61.696 180.712C63.9147 185.832 65.024 192.573 65.024 200.936V238.312H26.624ZM62.208 355.56C54.528 355.56 48.0427 354.365 42.752 351.976C37.4613 349.587 33.4507 346.003 30.72 341.224C27.9893 336.275 26.624 330.131 26.624 322.792V212.712H65.024V318.184C65.024 321.427 65.7067 323.816 67.072 325.352C68.608 326.888 70.912 327.656 73.984 327.656C75.3493 327.656 76.8 327.485 78.336 327.144C79.872 326.803 81.3227 326.376 82.688 325.864L86.272 350.44C83.0293 352.147 79.36 353.427 75.264 354.28C71.168 355.133 66.816 355.56 62.208 355.56ZM104.67 353V269.8C104.67 250.173 109.875 235.24 120.286 225C130.697 214.589 147.166 209.384 169.694 209.384C192.393 209.384 208.777 214.589 218.846 225C229.086 235.24 234.206 250.173 234.206 269.8V353H196.062V269.288C196.062 260.243 193.929 253.16 189.662 248.04C185.566 242.749 178.739 240.104 169.182 240.104C159.795 240.104 152.969 242.749 148.702 248.04C144.606 253.16 142.558 260.243 142.558 269.288V291.56L143.326 291.816C146.569 285.16 150.409 280.808 154.846 278.76C159.454 276.541 165.683 275.432 173.534 275.432H179.422V304.104H173.534C165.001 304.104 158.515 305.555 154.078 308.456C149.641 311.357 146.569 315.197 144.862 319.976C143.326 324.584 142.558 329.789 142.558 335.592V353H104.67ZM318.298 356.328C308.229 356.328 298.074 355.219 287.834 353C277.765 350.781 268.805 347.624 260.954 343.528L271.706 313.064C275.119 314.941 279.215 316.904 283.994 318.952C288.773 321 293.978 322.707 299.61 324.072C305.242 325.437 310.959 326.12 316.762 326.12C323.589 326.12 328.709 325.181 332.122 323.304C335.706 321.256 337.498 318.184 337.498 314.088C337.498 311.016 336.303 308.541 333.914 306.664C331.695 304.616 328.367 302.739 323.93 301.032C319.493 299.155 314.202 297.192 308.058 295.144C299.013 291.901 291.247 288.403 284.762 284.648C278.277 280.893 273.242 276.285 269.658 270.824C266.245 265.363 264.538 258.536 264.538 250.344C264.538 240.957 266.927 233.277 271.706 227.304C276.485 221.331 283.226 216.893 291.93 213.992C300.634 210.92 310.789 209.384 322.394 209.384C331.951 209.384 340.57 210.152 348.25 211.688C355.93 213.224 361.903 215.187 366.17 217.576V247.784C363.269 246.419 359.429 245.053 354.65 243.688C350.042 242.323 345.007 241.213 339.546 240.36C334.255 239.336 329.135 238.824 324.186 238.824C317.189 238.824 311.898 239.763 308.314 241.64C304.73 243.517 302.938 246.163 302.938 249.576C302.938 252.307 304.133 254.611 306.522 256.488C309.082 258.365 312.751 260.157 317.53 261.864C322.309 263.4 328.026 265.363 334.682 267.752C343.557 270.824 351.066 274.237 357.21 277.992C363.354 281.747 367.962 286.355 371.034 291.816C374.277 297.277 375.898 304.019 375.898 312.04C375.898 319.72 374.106 326.973 370.522 333.8C367.109 340.456 361.221 345.917 352.858 350.184C344.495 354.28 332.975 356.328 318.298 356.328ZM456.174 355.56C440.985 355.56 429.123 352.488 420.59 346.344C412.227 340.029 406.339 331.325 402.926 320.232C399.683 308.968 398.062 295.912 398.062 281.064C398.062 264.509 399.683 251.027 402.926 240.616C406.169 230.205 411.033 222.525 417.518 217.576C424.174 212.627 432.281 210.152 441.838 210.152C447.811 210.152 453.017 211.347 457.454 213.736C462.062 215.955 465.731 220.136 468.462 226.28H469.486C471.875 219.965 475.801 215.699 481.262 213.48C486.723 211.261 492.611 210.152 498.926 210.152C510.702 210.152 519.491 213.309 525.294 219.624C531.267 225.939 534.254 235.155 534.254 247.272V353H495.854V254.44C495.854 249.149 495.001 245.565 493.294 243.688C491.587 241.811 489.283 240.872 486.382 240.872C483.139 240.872 480.665 241.811 478.958 243.688C477.422 245.565 476.398 248.723 475.886 253.16H460.782C460.099 248.211 458.819 244.968 456.942 243.432C455.065 241.725 452.846 240.872 450.286 240.872C446.019 240.872 442.691 243.944 440.302 250.088C438.083 256.232 436.974 266.643 436.974 281.32C436.974 290.877 437.657 299.069 439.022 305.896C440.558 312.552 443.118 317.672 446.702 321.256C450.286 324.669 455.406 326.376 462.062 326.376C464.11 326.376 465.987 326.291 467.694 326.12C469.401 325.779 470.851 325.352 472.046 324.84L475.886 352.232C473.155 353.427 470.169 354.28 466.926 354.792C463.683 355.304 460.099 355.56 456.174 355.56ZM609.594 355.56C601.914 355.56 595.429 354.365 590.138 351.976C584.847 349.587 580.837 346.003 578.106 341.224C575.375 336.275 574.01 330.131 574.01 322.792V212.712H612.41V318.184C612.41 321.427 613.093 323.816 614.458 325.352C615.994 326.888 618.298 327.656 621.37 327.656C622.735 327.656 624.186 327.485 625.722 327.144C627.258 326.803 628.709 326.376 630.074 325.864L633.658 350.44C630.415 352.147 626.746 353.427 622.65 354.28C618.554 355.133 614.202 355.56 609.594 355.56ZM659.212 353V212.712H687.372L692.492 234.728H694.54C697.441 227.731 702.476 221.928 709.644 217.32C716.812 212.541 726.113 210.152 737.548 210.152C748.471 210.152 757.516 212.115 764.684 216.04C771.852 219.795 777.228 225.597 780.812 233.448C784.567 241.128 786.444 250.856 786.444 262.632V353H748.044V270.312C748.044 260.755 746.081 253.928 742.156 249.832C738.401 245.565 732.855 243.432 725.516 243.432C719.543 243.432 714.423 245.053 710.156 248.296C706.06 251.539 702.903 256.317 700.684 262.632C698.636 268.776 697.612 276.541 697.612 285.928V353H659.212ZM743.912 193.256V135.144H779.24V193.256H743.912ZM865.977 166.818L862.432 297.182H829.159L825.523 166.818H865.977ZM845.795 355.364C839.795 355.364 834.644 353.242 830.341 349C826.038 344.697 823.917 339.545 823.977 333.545C823.917 327.606 826.038 322.515 830.341 318.273C834.644 314.03 839.795 311.909 845.795 311.909C851.553 311.909 856.614 314.03 860.977 318.273C865.341 322.515 867.553 327.606 867.614 333.545C867.553 337.545 866.492 341.212 864.432 344.545C862.432 347.818 859.795 350.455 856.523 352.455C853.25 354.394 849.674 355.364 845.795 355.364Z" fill="white" fill-opacity="0.6"/>
</g>
<defs>
<filter id="filter0_b_1016_16" x="-15.9043" y="115.144" width="903.518" height="261.184" filterUnits="userSpaceOnUse" color-interpolation-filters="sRGB">
<feFlood flood-opacity="0" result="BackgroundImageFix"/>
<feGaussianBlur in="BackgroundImageFix" stdDeviation="10"/>
<feComposite in2="SourceAlpha" operator="in" result="effect1_backgroundBlur_1016_16"/>
<feBlend mode="normal" in="SourceGraphic" in2="effect1_backgroundBlur_1016_16" result="shape"/>
</filter>
</defs>
</svg>
